<?xml version="1.0" encoding="UTF-8" standalone="no"?>
<!-- Created with Inkscape (http://www.inkscape.org/) -->

<svg
   width="3490"
   height="2600"
   viewBox="0 0 923.39581 687.91667"
   version="1.1"
   id="svg49181"
   xml:space="preserve"
   inkscape:version="1.2.1 (9c6d41e410, 2022-07-14, custom)"
   sodipodi:docname="cemetery-fountain-lights.svg"
   inkscape:export-filename="../../../Maps/assets/cemetery/fountain-base-lights.png"
   inkscape:export-xdpi="96"
   inkscape:export-ydpi="96"
   xmlns:inkscape="http://www.inkscape.org/namespaces/inkscape"
   xmlns:sodipodi="http://sodipodi.sourceforge.net/DTD/sodipodi-0.dtd"
   xmlns:xlink="http://www.w3.org/1999/xlink"
   xmlns="http://www.w3.org/2000/svg"
   xmlns:svg="http://www.w3.org/2000/svg"><sodipodi:namedview
     id="namedview49183"
     pagecolor="#505050"
     bordercolor="#eeeeee"
     borderopacity="1"
     inkscape:showpageshadow="0"
     inkscape:pageopacity="0"
     inkscape:pagecheckerboard="0"
     inkscape:deskcolor="#505050"
     inkscape:document-units="mm"
     showgrid="false"
     inkscape:zoom="0.38395812"
     inkscape:cx="1789.2576"
     inkscape:cy="1158.9806"
     inkscape:window-width="2560"
     inkscape:window-height="1416"
     inkscape:window-x="2560"
     inkscape:window-y="24"
     inkscape:window-maximized="1"
     inkscape:current-layer="layer4" /><defs
     id="defs49178"><linearGradient
       inkscape:collect="always"
       id="linearGradient112182"><stop
         style="stop-color:#ffffff;stop-opacity:0.89999998;"
         offset="0"
         id="stop112166" /><stop
         style="stop-color:#ffffff;stop-opacity:0.40000001;"
         offset="0.11795606"
         id="stop112168" /><stop
         style="stop-color:#ffffff;stop-opacity:0.80000001;"
         offset="0.2231001"
         id="stop112170" /><stop
         style="stop-color:#ffffff;stop-opacity:0.40000001;"
         offset="0.34607807"
         id="stop112172" /><stop
         style="stop-color:#ffffff;stop-opacity:0.1;"
         offset="0.46732849"
         id="stop112174" /><stop
         style="stop-color:#ffffff;stop-opacity:0.2;"
         offset="0.59038472"
         id="stop112176" /><stop
         style="stop-color:#ffffff;stop-opacity:0.1;"
         offset="0.72789568"
         id="stop112178" /><stop
         style="stop-color:#ffffff;stop-opacity:0;"
         offset="1"
         id="stop112180" /></linearGradient><linearGradient
       inkscape:collect="always"
       id="linearGradient100439"><stop
         style="stop-color:#ffffff;stop-opacity:0.80000001;"
         offset="0"
         id="stop100435" /><stop
         style="stop-color:#000000;stop-opacity:0;"
         offset="1"
         id="stop100437" /></linearGradient><linearGradient
       inkscape:collect="always"
       id="linearGradient95931"><stop
         style="stop-color:#ffffff;stop-opacity:0.80000001;"
         offset="0"
         id="stop95927" /><stop
         style="stop-color:#000000;stop-opacity:0;"
         offset="1"
         id="stop95929" /></linearGradient><linearGradient
       inkscape:collect="always"
       id="linearGradient95813"><stop
         style="stop-color:#f4f4f4;stop-opacity:0.1;"
         offset="0"
         id="stop95803" /><stop
         style="stop-color:#ffffff;stop-opacity:0.25;"
         offset="0.49692389"
         id="stop95805" /><stop
         style="stop-color:#d3d3d3;stop-opacity:0.60000002;"
         offset="0.71088767"
         id="stop95807" /><stop
         style="stop-color:#f1f1f1;stop-opacity:0.34999999;"
         offset="0.84039307"
         id="stop95809" /><stop
         style="stop-color:#ffffff;stop-opacity:0.15000001;"
         offset="1"
         id="stop95811" /></linearGradient><linearGradient
       inkscape:collect="always"
       id="linearGradient92718"><stop
         style="stop-color:#f4f4f4;stop-opacity:0.05;"
         offset="0"
         id="stop92708" /><stop
         style="stop-color:#ffffff;stop-opacity:0.15000001;"
         offset="0.32131261"
         id="stop92710" /><stop
         style="stop-color:#ffffff;stop-opacity:0.40000001;"
         offset="0.50526714"
         id="stop92720" /><stop
         style="stop-color:#ffffff;stop-opacity:0.60000002;"
         offset="0.66378057"
         id="stop92712" /><stop
         style="stop-color:#f1f1f1;stop-opacity:0.2;"
         offset="0.84039307"
         id="stop92714" /><stop
         style="stop-color:#ffffff;stop-opacity:0.15000001;"
         offset="1"
         id="stop92716" /></linearGradient><linearGradient
       inkscape:collect="always"
       id="linearGradient92706"><stop
         style="stop-color:#f4f4f4;stop-opacity:0.05;"
         offset="0"
         id="stop92696" /><stop
         style="stop-color:#ffffff;stop-opacity:0.2;"
         offset="0.43789005"
         id="stop92698" /><stop
         style="stop-color:#ffffff;stop-opacity:0.60000002;"
         offset="0.66378057"
         id="stop92700" /><stop
         style="stop-color:#f1f1f1;stop-opacity:0.2;"
         offset="0.84039307"
         id="stop92702" /><stop
         style="stop-color:#ffffff;stop-opacity:0.15000001;"
         offset="1"
         id="stop92704" /></linearGradient><linearGradient
       inkscape:collect="always"
       id="Status-Side-v3"><stop
         style="stop-color:#f4f4f4;stop-opacity:0.05;"
         offset="0"
         id="stop91191" /><stop
         style="stop-color:#ffffff;stop-opacity:0.2;"
         offset="0.44227445"
         id="stop91193" /><stop
         style="stop-color:#ffffff;stop-opacity:0.60000002;"
         offset="0.66378057"
         id="stop91195" /><stop
         style="stop-color:#f1f1f1;stop-opacity:0.2;"
         offset="0.84039307"
         id="stop91197" /><stop
         style="stop-color:#ffffff;stop-opacity:0.15000001;"
         offset="1"
         id="stop91199" /></linearGradient><linearGradient
       inkscape:collect="always"
       id="Statue-Side"><stop
         style="stop-color:#f4f4f4;stop-opacity:0.05;"
         offset="0"
         id="stop86658" /><stop
         style="stop-color:#ffffff;stop-opacity:0.15000001;"
         offset="0.38664335"
         id="stop86660" /><stop
         style="stop-color:#d3d3d3;stop-opacity:0.44999999;"
         offset="0.74457526"
         id="stop86662" /><stop
         style="stop-color:#f1f1f1;stop-opacity:0.2;"
         offset="0.84039307"
         id="stop86664" /><stop
         style="stop-color:#ffffff;stop-opacity:0.15000001;"
         offset="1"
         id="stop86666" /></linearGradient><linearGradient
       inkscape:collect="always"
       id="linearGradient53328"><stop
         style="stop-color:#ffffff;stop-opacity:0.89999998;"
         offset="0"
         id="stop53324" /><stop
         style="stop-color:#ffffff;stop-opacity:0.40000001;"
         offset="0.11795606"
         id="stop111436" /><stop
         style="stop-color:#ffffff;stop-opacity:0.80000001;"
         offset="0.24749383"
         id="stop53342" /><stop
         style="stop-color:#ffffff;stop-opacity:0.40000001;"
         offset="0.34607807"
         id="stop53336" /><stop
         style="stop-color:#ffffff;stop-opacity:0.1;"
         offset="0.46732849"
         id="stop53340" /><stop
         style="stop-color:#ffffff;stop-opacity:0.2;"
         offset="0.59038472"
         id="stop53332" /><stop
         style="stop-color:#ffffff;stop-opacity:0.1;"
         offset="0.72789568"
         id="stop53334" /><stop
         style="stop-color:#ffffff;stop-opacity:0;"
         offset="1"
         id="stop53326" /></linearGradient><radialGradient
       inkscape:collect="always"
       xlink:href="#linearGradient53328"
       id="radialGradient53330"
       cx="459.29245"
       cy="294.48749"
       fx="459.29245"
       fy="294.48749"
       r="380.84689"
       gradientTransform="matrix(1.1780936,2.0658936e-4,1.5302724e-4,-0.87269528,-79.437138,-94.664002)"
       gradientUnits="userSpaceOnUse" /><linearGradient
       inkscape:collect="always"
       xlink:href="#Status-Side-v3"
       id="linearGradient68967"
       x1="459.90088"
       y1="68.370186"
       x2="470.21024"
       y2="452.28775"
       gradientUnits="userSpaceOnUse" /><linearGradient
       inkscape:collect="always"
       xlink:href="#linearGradient92706"
       id="linearGradient86648"
       x1="488.05655"
       y1="160.87088"
       x2="546.67352"
       y2="409.16776"
       gradientUnits="userSpaceOnUse" /><linearGradient
       inkscape:collect="always"
       xlink:href="#linearGradient92718"
       id="linearGradient86656"
       x1="430.13782"
       y1="125.05624"
       x2="367.54099"
       y2="429.32501"
       gradientUnits="userSpaceOnUse" /><linearGradient
       inkscape:collect="always"
       xlink:href="#Statue-Side"
       id="linearGradient86676"
       x1="430.89377"
       y1="255.30824"
       x2="427.17499"
       y2="413.5499"
       gradientUnits="userSpaceOnUse" /><linearGradient
       inkscape:collect="always"
       xlink:href="#linearGradient95813"
       id="linearGradient95801"
       x1="461.78607"
       y1="172.35951"
       x2="460.39133"
       y2="283.47116"
       gradientUnits="userSpaceOnUse" /><radialGradient
       inkscape:collect="always"
       xlink:href="#linearGradient100439"
       id="radialGradient95935"
       cx="342.94931"
       cy="212.69171"
       fx="342.94931"
       fy="212.69171"
       r="23.330038"
       gradientTransform="matrix(0.84747084,-0.02797427,0.10020295,3.0356149,31.193579,-410.05605)"
       gradientUnits="userSpaceOnUse" /><radialGradient
       inkscape:collect="always"
       xlink:href="#linearGradient95931"
       id="radialGradient100433"
       gradientUnits="userSpaceOnUse"
       gradientTransform="matrix(0.84671912,-0.04533795,0.16471534,3.0761789,18.117898,-395.69102)"
       cx="617.00848"
       cy="212.24355"
       fx="617.00848"
       fy="212.24355"
       r="23.330038" /><radialGradient
       inkscape:collect="always"
       xlink:href="#linearGradient112182"
       id="radialGradient112164"
       gradientUnits="userSpaceOnUse"
       gradientTransform="matrix(1.1780936,2.0658936e-4,1.5302724e-4,-0.87269528,-79.437138,-94.664002)"
       cx="459.29245"
       cy="294.48749"
       fx="459.29245"
       fy="294.48749"
       r="380.84689" /></defs><g
     inkscape:label="Actor-Light"
     inkscape:groupmode="layer"
     id="layer1"
     style="display:none"><ellipse
       style="display:inline;opacity:0.303565;fill:url(#radialGradient53330);fill-opacity:1;stroke-width:1.05833;stroke-linecap:round;stroke-linejoin:round;stroke-dashoffset:25.9;paint-order:stroke fill markers"
       id="path53299"
       cx="461.69791"
       cy="-343.95834"
       rx="461.69791"
       ry="343.95834"
       transform="scale(1,-1)"
       sodipodi:insensitive="true"
       inkscape:label="MainLight" /></g><g
     inkscape:groupmode="layer"
     id="layer4"
     inkscape:label="Base-Light"
     sodipodi:insensitive="true"
     style="display:inline"><path
       id="ellipse74094"
       style="display:inline;opacity:0.303565;fill:url(#radialGradient112164);fill-opacity:1;stroke-width:1.05833;stroke-linecap:round;stroke-linejoin:round;stroke-dashoffset:25.9;paint-order:stroke fill markers"
       inkscape:label="MainLight-Cut"
       d="M 461.69792,0 A 461.69791,343.95834 0 0 1 0,-343.95833 461.69791,343.95834 0 0 1 461.69792,-687.91667 461.69791,343.95834 0 0 1 923.39583,-343.95833 461.69791,343.95834 0 0 1 461.69792,0 Z m -6.9324,-68.992688 13.90355,-0.258899 22.11183,-8.210868 13.75781,-9.607166 14.98668,-14.494719 -12.36978,-16.89303 8.1964,-24.61555 14.00379,-25.03413 -0.10542,-5.10408 -12.50518,-8.16074 -14.4787,-6.50762 -5.69423,-2.09806 15.04146,-22.31905 41.85688,-7.99125 -13.60434,2.59778 6.03426,9.04699 7.50445,7.91941 10.47998,8.69353 9.66349,3.31194 5.7056,-0.0196 2.33629,-1.38803 1.20458,-2.75849 -2.38125,-3.63285 -9.19427,-8.22379 -7.17941,-6.6089 7.36182,3.65042 15.41663,3.28042 16.64292,1.70222 30.1966,19.52336 19.62206,7.73751 16.57263,3.0918 2.50269,-1.88102 -0.85111,-2.24689 -16.90956,-10.10067 7.04866,0.43304 10.06554,-2.15335 9.75909,-3.40858 16.92972,-10.15907 15.91996,-13.24312 5.79344,-6.82284 -1.60352,-3.42976 -6.56187,0.0899 -11.48457,4.63383 11.96464,-9.00979 1.76165,-4.06383 -1.7787,-2.56987 -3.81734,-1.04748 -23.65902,6.2544 -23.46213,8.03878 13.58728,-8.73228 14.95516,-12.26127 2.69855,-4.07934 -1.97456,-2.2226 -5.53713,0.078 -9.04906,2.71922 -14.47354,6.79855 -15.2647,7.90649 -9.06611,4.00182 0.55604,-0.81442 12.29279,-10.31151 15.83056,-17.83767 0.52555,-4.08813 -2.30064,-3.21065 -4.00337,-0.19379 -3.30264,1.1622 -7.20835,2.62723 -8.0424,4.44418 -9.91206,7.12566 0.24908,-2.07843 3.73517,-4.15736 3.59823,-6.72156 -0.17621,-2.85512 -3.0949,-0.56637 -4.45865,1.78593 -7.38559,4.24057 -14.72675,10.83655 0.67644,-1.32447 4.28346,-6.94893 -0.008,-2.89026 -1.04334,-2.08204 -2.78071,-0.58601 -2.76314,0.65215 -6.70243,3.85765 0.29765,-2.5337 -0.39481,-2.15129 -1.33273,-1.02939 -1.49345,-0.52659 -2.23914,0.0129 -13.52269,8.06308 -0.19999,12.74547 -6.60424,-2.95692 -6.55413,-0.48369 -6.01875,0.45475 -2.95331,0.62063 2.31511,-84.42068 -10.83242,-6.2606 -28.02258,23.63886 -12.43645,15.43937 0.0527,-20.10523 6.87452,2.80913 14.76757,-25.10958 14.1118,-16.17627 12.93875,-11.25151 -1.51671,-8.42068 -8.71316,-10.63501 -5.87354,-5.03328 -8.46563,-5.56194 -21.26176,27.37353 -10.83964,13.27567 -16.62896,32.67449 -1.5875,22.48494 -0.68937,15.72307 -7.90701,69.4092 -1.15858,10.14511 -1.06712,12.60802 2.05155,1.66243 2.89543,2.98483 1.4888,-0.16226 0.26458,-0.13901 5.92006,2.97914 1.96577,7.62073 4.02818,8.15764 -1.01235,10.67222 -5.49217,-5.03949 -7.65741,-2.56263 0.18035,-2.77141 -1.18494,-9.47022 -1.27072,-8.83151 -2.43758,-3.8778 -5.27358,-2.35282 2.85512,-38.1677 3.37602,-27.89442 7.94319,-86.07692 2.38952,-7.20679 9.07076,-23.10092 10.71459,-33.98397 -24.67343,-5.14594 -25.61135,-2.1332 -0.48731,49.65692 0.37878,10.32701 4.10776,27.90063 1.37098,18.62677 2.13062,20.84524 -0.63665,93.76895 -7.39232,0.69556 -10.11153,3.14038 -4.09949,9.72861 -0.94051,15.92099 -8.27184,2.49183 -5.24154,5.36867 -0.67232,-11.23136 4.82607,-12.96716 4.30361,-6.36654 1.60972,-0.03 1.07745,-17.8909 0.3974,-18.05213 1.09399,-26.67227 -0.48111,-5.95003 0.63665,-1.54254 1.63401,-0.15193 2.33009,1.18443 2.08463,2.12752 1.418,2.53317 -0.12351,27.57197 4.01113,1.76836 1.2578,-33.23363 0.29404,-1.50223 1.14774,-0.58446 -0.0853,-16.6517 -0.37362,-29.56822 -0.4315,-4.0845 -0.73329,-3.81166 -1.21336,-3.84886 -3.21944,-8.57984 -2.61586,-8.09149 -1.54978,-5.67511 -0.91777,-5.35988 -2.08825,-15.57372 -2.13113,-0.786 -3.88504,-1.71153 -3.60288,-2.10013 -3.0241,-3.00085 -1.9973,-3.69486 -6.89777,-24.03574 -4.48396,-14.2379 -9.3617,3.78582 -6.79752,4.08812 -3.00344,2.62723 -1.29191,2.38435 -1.85156,-0.41186 -3.20963,0.17363 -6.99699,2.67891 -9.37875,6.19446 -7.79488,8.67543 -4.88755,6.42855 -1.08159,7.26933 11.95586,10.6934 12.92272,14.20275 10.46448,15.84089 7.52874,14.51281 3.82354,8.25325 2.33888,7.24245 -13.83017,-17.03875 -12.46125,-11.8706 -13.53251,-9.9565 -5.70146,-0.50487 -4.36201,2.9533 -0.68936,5.36815 1.47433,82.2663 -3.29438,-0.90899 -6.01875,-0.45475 -6.55412,0.48369 -6.60425,2.95692 -0.19999,-12.74547 -13.52269,-8.06308 -2.23914,-0.0129 -1.49344,0.52658 -1.33274,1.02939 -0.39481,2.15129 0.29766,2.5337 -6.70243,-3.85765 -2.76314,-0.65215 -2.78071,0.58601 -1.04335,2.08204 -0.008,2.89026 4.28346,6.94893 0.67645,1.32447 -14.72675,-10.83655 -7.3856,-4.24057 -4.45813,-1.78593 -3.09541,0.56637 -0.17622,2.85512 3.59875,6.72156 3.73465,4.15737 0.24908,2.07842 -9.91205,-7.12566 -8.04241,-4.44366 -7.20834,-2.62774 -3.30264,-1.16221 -4.00338,0.19379 -2.30063,3.21066 0.52555,4.08812 15.83056,17.83767 12.29279,10.31151 0.55603,0.81443 -9.06559,-4.00183 -15.26522,-7.90649 -14.47354,-6.79855 -9.04906,-2.71922 -5.53712,-0.078 -1.97456,2.2226 2.69854,4.07934 14.95516,12.26127 13.58729,8.73228 -23.46214,-8.03827 -23.65902,-6.25491 -3.81734,1.04748 -1.7787,2.56987 1.76165,4.06383 11.96464,9.00979 -11.48457,-4.63383 -6.56187,-0.0899 -1.60352,3.42976 5.79345,6.82284 15.91995,13.24312 16.92972,10.15907 9.75909,3.40858 10.06554,2.15335 7.04867,-0.43304 -16.90957,10.10067 -0.85111,2.24689 2.50269,1.88102 16.57263,-3.0918 19.62206,-7.73751 30.19661,-19.52335 16.64291,-1.70223 15.41663,-3.28042 7.36182,-3.65042 -7.1794,6.6089 -9.19427,8.22379 -2.38125,3.63285 1.20457,2.75849 2.3363,1.38803 5.70559,0.0196 9.66349,-3.31194 10.47998,-8.69352 7.50446,-7.91942 6.03374,-9.03304 -8.62687,-1.55908 37.02875,6.69055 6.60838,10.57352 8.59276,11.95224 -12.0003,4.71961 -15.17944,7.41815 -5.30613,3.92482 -0.76688,5.05189 15.197,28.31145 7.38457,22.15886 -5.79707,6.21564 -6.25646,10.62932 8.76846,9.816458 10.65619,7.90236 13.02505,7.512203 7.6233,2.63033 8.2796,3.885551 z m -16.85013,-302.298342 -1.05988,-9.73739 -1.22267,-16.31167 0.67179,-19.21898 -14.76654,3.05046 5.57486,19.00969 4.47208,18.83038 z m 229.2966,-8.54418 -1.28209,-18.62626 17.78702,1.87948 -5.38468,-29.54342 -17.41548,0.12919 -0.0284,6.44405 -7.56698,-2.52543 -9.25783,37.06958 z m -401.54914,-21.79092 -1.24953,-6.87658 0.77049,-3.17242 -0.0269,-2.89543 -1.91203,-0.25942 -0.62476,-1.1684 8.08167,0.51521 -4.31756,-30.56506 -14.30921,-0.75189 0.18707,3.7145 -9.33276,-0.19843 -4.09536,41.28068 z m 28.56105,-26.95236 23.72465,-0.78807 -4.39663,-25.96689 -4.8674,7.76645 2.77761,10.16579 -6.87555,-5.66012 -3.99976,3.17397 -5.85029,4.932 z m 3.01997,-16.18454 3.92844,-6.37687 2.13941,-4.82813 -5.81257,-5.63325 -1.72599,16.46463 z m 7.68842,-15.83676 -0.0848,-1.54203 -2.32854,-4.36511 -3.97857,-5.72988 -0.94309,10.0335 z m 320.38355,-7.19285 -1.05834,-13.18162 15.11898,-1.66863 -4.83485,-25.3168 -12.51086,0.23047 -0.3297,-4.00492 -18.12964,-6.13089 -7.29516,43.34619 z m -53.68148,-21.64105 14.63942,-1.58647 -0.61702,-12.37857 -3.92173,2.75745 -3.0303,0.91519 -3.46749,8.14938 -2.51561,-6.61407 -0.34106,-0.0548 z m -151.94318,-18.23248 0.86713,-6.73034 -12.83488,-9.66814 -3.76359,3.95686 1.90428,8.19898 -5.47512,-4.10465 -0.67076,0.76946 -0.70694,5.31699 z m 160.80827,-0.0992 4.64675,-2.83962 -0.56328,-13.6095 -10.56111,0.53433 -0.68161,12.52017 z m -212.70381,-0.0951 -1.5968,-38.45192 -19.19263,0.72399 -0.45734,5.68906 -11.26856,2.22208 -1.80041,22.83065 11.6334,-3.89847 -0.91002,9.03511 z m 52.02576,-19.80035 2.5337,-0.76791 1.72134,-13.36714 -16.00988,-1.40198 0.73278,6.22442 1.82469,0.99271 3.1812,2.46135 3.34295,3.0763 z m -16.61242,-10.42985 1.2175,-0.1788 3.05356,-5.02605 -3.42925,-0.33021 z"
       transform="scale(1,-1)" /><path
       id="path74099"
       style="display:inline;opacity:0.2062;mix-blend-mode:normal;fill:url(#linearGradient68967);fill-opacity:1;stroke-width:1.05833;stroke-linecap:round;stroke-linejoin:round;stroke-dashoffset:25.9;paint-order:stroke fill markers"
       d="m 460.12886,312.28312 2.1306,-20.84486 -0.63647,-93.76919 -7.39219,-0.69553 -10.25806,-3.16441 -3.95319,-9.70445 -0.94049,-15.921 -8.2718,-2.49204 -5.24136,-5.36876 -0.67247,11.23169 4.82624,12.96713 4.34146,6.42342 -4.20137,2.55294 -20.8594,-8.20368 -15.17962,-7.41772 -5.30621,-3.92483 -0.76652,-5.05193 15.19699,-28.31143 7.38461,-22.15887 -5.79697,-6.21563 -6.25645,-10.62948 8.76799,-9.816377 10.65629,-7.902686 13.0253,-7.512206 7.6234,-2.630164 8.27963,-3.885467 8.1366,-0.845015 13.90391,0.258855 22.11149,8.210867 13.75816,9.607107 14.98664,14.495146 -12.36985,16.89307 8.19637,24.61539 14.00351,25.03413 -0.10528,5.10399 -12.50509,8.16063 -14.47881,6.50795 -12.55707,4.62614 -3.93916,-0.25362 -4.94426,-2.59206 6.02293,-3.03071 1.96557,-7.6207 4.02825,-8.1576 -1.0125,-10.67249 -5.49205,5.03976 -7.65746,2.56244 0.18027,2.77139 -1.1846,9.47041 -1.27068,8.83156 -2.4378,3.87764 -5.27351,2.35261 2.85502,38.16811 3.37594,27.89431 7.94363,86.07671 2.38952,7.20675 9.0705,23.10104 10.7145,33.98416 -24.67342,5.14604 -25.61141,2.13307 -0.48716,-49.65713 0.37863,-10.32691 4.10795,-27.90069 z"
       sodipodi:nodetypes="ccccccccccccccccccccccccccccccccccccccccccccccccccccccccccccccc"
       inkscape:label="Statue Base" /><path
       id="path81404"
       style="display:inline;opacity:0.2062;mix-blend-mode:normal;fill:url(#linearGradient86656);fill-opacity:1;stroke-width:1.05833;stroke-linecap:round;stroke-linejoin:round;stroke-dashoffset:25.9;paint-order:stroke fill markers"
       d="m 366.71573,336.35098 -5.70158,0.5052 -4.3621,-2.95381 -0.68926,-5.36766 1.47451,-82.26658 3.37185,-2.31756 3.2519,-3.33545 2.27915,-3.40347 1.80585,-4.04907 0.29348,-2.80637 -0.61154,-3.19389 -1.13466,-2.70958 -1.86045,-2.90878 -1.03882,-1.26076 4.97677,-1.0529 37.0288,-6.69009 6.60805,-10.57379 8.65366,-12.03644 8.56023,3.38342 4.36616,-2.42565 1.64494,0.0301 1.07757,17.89089 0.39719,18.05242 1.09438,26.67232 -0.48141,5.94985 0.63664,1.54236 1.63433,0.15238 2.32999,-1.18487 2.08462,-2.12718 1.41786,-2.53306 -0.12338,-27.57237 4.0112,-1.76802 1.25754,33.23343 0.29399,1.50246 1.14786,0.58414 -0.0853,16.65202 -0.37369,29.56782 -0.43111,4.0849 -0.73341,3.81122 -1.21326,3.84933 -3.21963,8.57968 -2.61567,8.09141 -1.54975,5.6753 -0.91777,5.35966 -2.08823,15.57369 -2.13138,0.78583 -3.88521,1.71168 -3.60278,2.10022 -3.0238,3.0009 -1.99747,3.69475 -6.898,24.03563 -4.48366,14.23793 -9.36165,-3.78564 -6.79764,-4.08823 -3.00351,-2.62702 -1.29212,-2.38474 -1.85106,0.41202 -3.2099,-0.17372 -6.99684,-2.6785 -9.37889,-6.19488 -7.79489,-8.67522 -4.88739,-6.4288 -1.08162,-7.26905 11.9559,-10.69362 12.92269,-14.20273 10.46411,-15.8407 7.52893,-14.51275 3.82355,-8.25347 2.33891,-7.24228 -13.83011,17.03882 -12.46113,11.87027 z"
       sodipodi:nodetypes="cccccccccccccccccccccccccccccccccccccccccccccccccccccccccccccccccccccccc"
       inkscape:label="Statue Base" /><path
       id="path81408"
       style="display:inline;opacity:0.2062;mix-blend-mode:normal;fill:url(#linearGradient86676);fill-opacity:1;stroke-width:1.05833;stroke-linecap:round;stroke-linejoin:round;stroke-dashoffset:25.9;paint-order:stroke fill markers"
       d="m 437.91561,371.2908 -1.06027,9.73737 -1.22256,16.31181 0.67167,19.21884 -14.76644,-3.05027 5.57514,-19.00966 4.47188,-18.83053 z"
       sodipodi:nodetypes="cccccccc"
       inkscape:label="Statue Base" /><path
       id="path81412"
       style="display:inline;opacity:0.2062;mix-blend-mode:normal;fill:url(#linearGradient86648);fill-opacity:1;stroke-width:1.05833;stroke-linecap:round;stroke-linejoin:round;stroke-dashoffset:25.9;paint-order:stroke fill markers"
       d="m 484.36139,286.11681 -7.90704,-69.40897 -1.15876,-10.14506 -1.06726,-12.60814 2.05173,-1.66272 2.89512,-2.98447 1.48913,0.16193 5.05594,2.65541 4.08971,0.27982 6.72538,-2.48121 15.07865,22.373 41.85685,7.99119 -2.63153,2.94278 -1.77217,4.18226 -0.38282,4.30309 1.52761,4.72916 2.5541,4.05872 3.45973,3.28242 3.94267,2.77507 2.31488,84.42057 -10.83233,6.26083 -28.02243,-23.63904 -12.43634,-15.43902 0.0524,20.10484 6.87452,-2.80885 14.76757,25.10969 14.11179,16.1763 12.93901,11.25152 -1.51689,8.42043 -8.71324,10.63504 -5.87318,5.03344 -8.46604,5.56182 -21.26129,-27.37338 -10.84001,-13.27612 -16.62891,-32.67418 -1.58724,-22.48485 z"
       sodipodi:nodetypes="ccccccccccccccccccccccccccccccccccccc"
       inkscape:label="Statue Base" /><path
       id="path81416"
       style="display:inline;opacity:0.2062;mix-blend-mode:normal;fill:url(#linearGradient95801);fill-opacity:1;stroke-width:1.05833;stroke-linecap:round;stroke-linejoin:round;stroke-dashoffset:25.9;paint-order:stroke fill markers"
       inkscape:label="Statue Wings"
       d="m 247.41177,172.35951 -2.50269,1.88102 0.85111,2.24689 16.90957,10.10067 -7.04867,-0.43304 -10.06554,2.15335 -9.75909,3.40858 -16.92972,10.15907 -15.91995,13.24312 -5.79345,6.82284 1.60352,3.42976 6.56187,-0.0899 11.48457,-4.63383 -11.96464,9.00979 -1.76165,4.06383 1.7787,2.56987 3.81734,1.04748 23.65902,-6.25491 23.46214,-8.03827 -13.58729,8.73228 -14.95516,12.26127 -2.69854,4.07934 1.97456,2.2226 5.53712,-0.078 9.04906,-2.71922 14.47354,-6.79855 15.26522,-7.90649 9.06559,-4.00183 -0.55603,0.81443 -12.29279,10.31151 -15.83056,17.83767 -0.52555,4.08812 2.30063,3.21066 4.00338,0.19379 3.30264,-1.16221 7.20834,-2.62774 8.04241,-4.44366 9.91205,-7.12566 -0.24908,2.07842 -3.73465,4.15737 -3.59875,6.72156 0.17622,2.85512 3.09541,0.56637 4.45813,-1.78593 7.3856,-4.24057 14.72675,-10.83655 -0.67645,1.32447 -4.28346,6.94893 0.008,2.89026 1.04335,2.08204 2.78071,0.58601 2.76314,-0.65215 6.70243,-3.85765 -0.29766,2.5337 0.39481,2.15129 1.33274,1.02939 1.49344,0.52658 2.23914,-0.0129 13.52269,-8.06308 0.19999,-12.74547 6.60425,2.95692 6.55412,0.48369 6.01875,-0.45475 3.29438,-0.90899 1.68568,-1.15858 1.6862,-1.15911 1.62626,-1.66759 1.62574,-1.6676 2.27945,-3.40341 1.80557,-4.04937 0.29353,-2.80654 -0.61134,-3.19361 -1.13481,-2.70939 -1.86035,-2.90887 -1.03921,-1.26091 4.97695,-1.05264 8.62687,-1.55908 -6.03374,-9.03304 -7.50446,-7.91942 -10.47998,-8.69352 -9.66349,-3.31194 -5.70559,0.0196 -2.3363,1.38803 -1.20457,2.75849 2.38125,3.63285 9.19427,8.22379 7.1794,6.6089 -7.36182,-3.65042 -15.41663,-3.28042 -16.64291,-1.70223 -30.19661,-19.52335 -19.62206,-7.73751 z m 422.44088,0.005 -16.57263,3.0918 -19.62206,7.73751 -30.1966,19.52336 -16.64292,1.70222 -15.41663,3.28042 -7.36182,3.65042 7.17941,-6.6089 9.19427,-8.22379 2.38125,-3.63285 -1.20458,-2.75849 -2.33629,-1.38803 -5.7056,-0.0196 -9.66349,3.31194 -10.47998,8.69353 -7.50445,7.91941 -6.03426,9.04699 13.60434,2.59778 -2.63136,2.94245 -1.77199,4.18218 -0.38292,4.30309 1.52755,4.72943 2.55437,4.05867 3.45974,3.28248 1.97094,1.38752 1.97145,1.38751 2.95331,0.62063 6.01875,0.45475 6.55413,-0.48369 6.60424,-2.95692 0.19999,12.74547 13.52269,8.06308 2.23914,0.0129 1.49345,-0.52659 1.33273,-1.02939 0.39481,-2.15129 -0.29765,-2.5337 6.70243,3.85765 2.76314,0.65215 2.78071,-0.58601 1.04334,-2.08204 0.008,-2.89026 -4.28346,-6.94893 -0.67644,-1.32447 14.72675,10.83655 7.38559,4.24057 4.45865,1.78593 3.0949,-0.56637 0.17621,-2.85512 -3.59823,-6.72156 -3.73517,-4.15736 -0.24908,-2.07843 9.91206,7.12566 8.0424,4.44418 7.20835,2.62723 3.30264,1.1622 4.00337,-0.19379 2.30064,-3.21065 -0.52555,-4.08813 -15.83056,-17.83767 -12.29279,-10.31151 -0.55604,-0.81442 9.06611,4.00182 15.2647,7.90649 14.47354,6.79855 9.04906,2.71922 5.53713,0.078 1.97456,-2.2226 -2.69855,-4.07934 -14.95516,-12.26127 -13.58728,-8.73228 23.46213,8.03878 23.65902,6.2544 3.81734,-1.04748 1.7787,-2.56987 -1.76165,-4.06383 -11.96464,-9.00979 11.48457,4.63383 6.56187,0.0899 1.60352,-3.42976 -5.79344,-6.82284 -15.91996,-13.24312 -16.92972,-10.15907 -9.75909,-3.40858 -10.06554,-2.15335 -7.04866,0.43304 16.90956,-10.10067 0.85111,-2.24689 z" /><path
       id="path81420"
       style="display:inline;opacity:0.2062;mix-blend-mode:normal;fill:url(#radialGradient95935);fill-opacity:1;stroke-width:1.05833;stroke-linecap:round;stroke-linejoin:round;stroke-dashoffset:25.9;paint-order:stroke fill markers"
       d="m 332.89255,164.72809 c 15.50138,29.98043 23.5566,33.18176 24.3551,40.80658 -5.97598,8.48658 8.20027,35.06614 -0.26964,35.68842 4.55093,42.43431 -30.70422,33.20472 -39.92563,-8.75972 -0.80365,-9.83343 12.45969,-12.43199 15.12161,-32.75937 35.43779,2.82626 -18.78364,-38.69135 0.71856,-34.97591 z"
       sodipodi:nodetypes="cccccc"
       inkscape:label="Statue Hands" /><path
       id="path100431"
       style="display:inline;opacity:0.2062;mix-blend-mode:normal;fill:url(#radialGradient100433);fill-opacity:1;stroke-width:1.05833;stroke-linecap:round;stroke-linejoin:round;stroke-dashoffset:25.9;paint-order:stroke fill markers"
       d="m 582.0126,164.11703 c 5.72032,27.67876 2.57663,32.6251 13.27579,51.72258 -5.97598,8.48658 -1.29233,27.2944 -9.76224,27.91668 4.55093,42.43431 -21.90109,38.39899 -31.1225,-3.56545 -0.80365,-9.83343 1.14931,-15.69233 3.81123,-36.01971 25.08784,-8.35941 4.29552,-43.76954 23.79772,-40.0541 z"
       sodipodi:nodetypes="cccccc"
       inkscape:label="Statue Hands" /></g></svg>
