<?xml version="1.0" encoding="UTF-8" standalone="no"?>
<!-- Created with Inkscape (http://www.inkscape.org/) -->

<svg
   width="279"
   height="279"
   viewBox="0 0 73.818746 73.818748"
   version="1.1"
   id="svg5"
   inkscape:export-filename="hex-event-small.png"
   inkscape:export-xdpi="96"
   inkscape:export-ydpi="96"
   inkscape:version="1.2.1 (9c6d41e410, 2022-07-14, custom)"
   sodipodi:docname="nodes.svg"
   xmlns:inkscape="http://www.inkscape.org/namespaces/inkscape"
   xmlns:sodipodi="http://sodipodi.sourceforge.net/DTD/sodipodi-0.dtd"
   xmlns="http://www.w3.org/2000/svg"
   xmlns:svg="http://www.w3.org/2000/svg">
  <sodipodi:namedview
     id="namedview7"
     pagecolor="#505050"
     bordercolor="#eeeeee"
     borderopacity="1"
     inkscape:showpageshadow="0"
     inkscape:pageopacity="0"
     inkscape:pagecheckerboard="0"
     inkscape:deskcolor="#505050"
     inkscape:document-units="mm"
     showgrid="false"
     inkscape:zoom="3.2319994"
     inkscape:cx="118.6572"
     inkscape:cy="145.11141"
     inkscape:window-width="2560"
     inkscape:window-height="1412"
     inkscape:window-x="2560"
     inkscape:window-y="28"
     inkscape:window-maximized="1"
     inkscape:current-layer="g45223" />
  <defs
     id="defs2" />
  <g
     inkscape:label="Layer 1"
     inkscape:groupmode="layer"
     id="layer1">
    <path
       sodipodi:type="star"
       style="display:none;fill:none;stroke:#7a7a7a;stroke-width:0.267567;stroke-linecap:round;stroke-linejoin:round;stroke-dasharray:none;stroke-dashoffset:25.9;stroke-opacity:1"
       id="path234"
       inkscape:flatsided="true"
       sodipodi:sides="6"
       sodipodi:cx="0"
       sodipodi:cy="0"
       sodipodi:r1="8.5471554"
       sodipodi:r2="7.4020543"
       sodipodi:arg1="1.0471976"
       sodipodi:arg2="1.5707963"
       inkscape:rounded="0"
       inkscape:randomized="0"
       d="m 4.2735773,7.4020539 -8.5471554,-4e-7 L -8.5471554,-4.1713026e-7 -4.2735773,-7.4020539 l 8.5471554,4e-7 L 8.5471554,4.1713026e-7 Z"
       transform="matrix(3.9012694,0,0,4.0102661,33.866667,33.866667)" />
    <circle
       style="display:none;fill:none;stroke:#ffffff;stroke-width:0.264583;stroke-linecap:round;stroke-dashoffset:25.9;stroke-opacity:0.25"
       id="path944"
       cx="8.4666662"
       cy="8.4666662"
       r="6.2177086" />
  </g>
  <g
     inkscape:groupmode="layer"
     id="g45223"
     inkscape:label="Grid"
     transform="translate(121.17968,62.259942)"
     style="display:inline">
    <g
       id="g46927"
       transform="translate(-118.13697,-59.217234)"
       sodipodi:insensitive="true"
       style="display:inline">
      <path
         sodipodi:type="star"
         style="display:inline;fill:none;stroke:#666666;stroke-width:0.268593;stroke-linecap:round;stroke-linejoin:round;stroke-dasharray:none;stroke-dashoffset:25.9;stroke-opacity:1"
         id="path41588"
         inkscape:flatsided="true"
         sodipodi:sides="6"
         sodipodi:cx="0"
         sodipodi:cy="0"
         sodipodi:r1="8.5471554"
         sodipodi:r2="7.4020543"
         sodipodi:arg1="1.0471976"
         sodipodi:arg2="1.5707963"
         inkscape:rounded="0"
         inkscape:randomized="0"
         d="m 4.2735773,7.4020539 -8.5471554,-4e-7 L -8.5471554,-4.1713026e-7 -4.2735773,-7.4020539 l 8.5471554,4e-7 L 8.5471554,4.1713026e-7 Z"
         transform="matrix(0.97525863,0,0,0.99498116,33.866667,33.866667)" />
      <path
         sodipodi:type="star"
         style="display:inline;fill:none;stroke:#666666;stroke-width:0.268593;stroke-linecap:round;stroke-linejoin:round;stroke-dasharray:none;stroke-dashoffset:25.9;stroke-opacity:1"
         id="path41588-3"
         inkscape:flatsided="true"
         sodipodi:sides="6"
         sodipodi:cx="0"
         sodipodi:cy="0"
         sodipodi:r1="8.5471554"
         sodipodi:r2="7.4020543"
         sodipodi:arg1="1.0471976"
         sodipodi:arg2="1.5707963"
         inkscape:rounded="0"
         inkscape:randomized="0"
         d="m 4.2735773,7.4020539 -8.5471554,-4e-7 L -8.5471554,-4.1713026e-7 -4.2735773,-7.4020539 l 8.5471554,4e-7 L 8.5471554,4.1713026e-7 Z"
         transform="matrix(0.97525863,0,0,0.99498116,46.370198,26.501764)" />
      <path
         sodipodi:type="star"
         style="display:inline;fill:none;stroke:#666666;stroke-width:0.268593;stroke-linecap:round;stroke-linejoin:round;stroke-dasharray:none;stroke-dashoffset:25.9;stroke-opacity:1"
         id="path41588-6"
         inkscape:flatsided="true"
         sodipodi:sides="6"
         sodipodi:cx="0"
         sodipodi:cy="0"
         sodipodi:r1="8.5471554"
         sodipodi:r2="7.4020543"
         sodipodi:arg1="1.0471976"
         sodipodi:arg2="1.5707963"
         inkscape:rounded="0"
         inkscape:randomized="0"
         d="m 4.2735773,7.4020539 -8.5471554,-4e-7 L -8.5471554,-4.1713026e-7 -4.2735773,-7.4020539 l 8.5471554,4e-7 L 8.5471554,4.1713026e-7 Z"
         transform="matrix(0.97525863,0,0,0.99498116,58.873729,19.136861)" />
      <path
         sodipodi:type="star"
         style="display:inline;fill:none;stroke:#666666;stroke-width:0.268593;stroke-linecap:round;stroke-linejoin:round;stroke-dasharray:none;stroke-dashoffset:25.9;stroke-opacity:1"
         id="path41588-7"
         inkscape:flatsided="true"
         sodipodi:sides="6"
         sodipodi:cx="0"
         sodipodi:cy="0"
         sodipodi:r1="8.5471554"
         sodipodi:r2="7.4020543"
         sodipodi:arg1="1.0471976"
         sodipodi:arg2="1.5707963"
         inkscape:rounded="0"
         inkscape:randomized="0"
         d="m 4.2735773,7.4020539 -8.5471554,-4e-7 L -8.5471554,-4.1713026e-7 -4.2735773,-7.4020539 l 8.5471554,4e-7 L 8.5471554,4.1713026e-7 Z"
         transform="matrix(0.97525863,0,0,0.99498116,21.363136,41.23157)" />
      <path
         sodipodi:type="star"
         style="display:inline;fill:none;stroke:#666666;stroke-width:0.268593;stroke-linecap:round;stroke-linejoin:round;stroke-dasharray:none;stroke-dashoffset:25.9;stroke-opacity:1"
         id="path41588-5"
         inkscape:flatsided="true"
         sodipodi:sides="6"
         sodipodi:cx="0"
         sodipodi:cy="0"
         sodipodi:r1="8.5471554"
         sodipodi:r2="7.4020543"
         sodipodi:arg1="1.0471976"
         sodipodi:arg2="1.5707963"
         inkscape:rounded="0"
         inkscape:randomized="0"
         d="m 4.2735773,7.4020539 -8.5471554,-4e-7 L -8.5471554,-4.1713026e-7 -4.2735773,-7.4020539 l 8.5471554,4e-7 L 8.5471554,4.1713026e-7 Z"
         transform="matrix(0.97525863,0,0,0.99498116,8.8596051,48.596473)" />
      <path
         sodipodi:type="star"
         style="display:inline;fill:none;stroke:#666666;stroke-width:0.268593;stroke-linecap:round;stroke-linejoin:round;stroke-dasharray:none;stroke-dashoffset:25.9;stroke-opacity:1"
         id="path41588-35"
         inkscape:flatsided="true"
         sodipodi:sides="6"
         sodipodi:cx="0"
         sodipodi:cy="0"
         sodipodi:r1="8.5471554"
         sodipodi:r2="7.4020543"
         sodipodi:arg1="1.0471976"
         sodipodi:arg2="1.5707963"
         inkscape:rounded="0"
         inkscape:randomized="0"
         d="m 4.2735773,7.4020539 -8.5471554,-4e-7 L -8.5471554,-4.1713026e-7 -4.2735773,-7.4020539 l 8.5471554,4e-7 L 8.5471554,4.1713026e-7 Z"
         transform="matrix(0.97525863,0,0,0.99498116,21.363135,55.961378)" />
      <path
         sodipodi:type="star"
         style="display:inline;fill:none;stroke:#666666;stroke-width:0.268593;stroke-linecap:round;stroke-linejoin:round;stroke-dasharray:none;stroke-dashoffset:25.9;stroke-opacity:1"
         id="path41588-62"
         inkscape:flatsided="true"
         sodipodi:sides="6"
         sodipodi:cx="0"
         sodipodi:cy="0"
         sodipodi:r1="8.5471554"
         sodipodi:r2="7.4020543"
         sodipodi:arg1="1.0471976"
         sodipodi:arg2="1.5707963"
         inkscape:rounded="0"
         inkscape:randomized="0"
         d="m 4.2735773,7.4020539 -8.5471554,-4e-7 L -8.5471554,-4.1713026e-7 -4.2735773,-7.4020539 l 8.5471554,4e-7 L 8.5471554,4.1713026e-7 Z"
         transform="matrix(0.97525863,0,0,0.99498116,33.866666,48.596475)" />
      <path
         sodipodi:type="star"
         style="display:inline;fill:none;stroke:#666666;stroke-width:0.268593;stroke-linecap:round;stroke-linejoin:round;stroke-dasharray:none;stroke-dashoffset:25.9;stroke-opacity:1"
         id="path41588-9"
         inkscape:flatsided="true"
         sodipodi:sides="6"
         sodipodi:cx="0"
         sodipodi:cy="0"
         sodipodi:r1="8.5471554"
         sodipodi:r2="7.4020543"
         sodipodi:arg1="1.0471976"
         sodipodi:arg2="1.5707963"
         inkscape:rounded="0"
         inkscape:randomized="0"
         d="m 4.2735773,7.4020539 -8.5471554,-4e-7 L -8.5471554,-4.1713026e-7 -4.2735773,-7.4020539 l 8.5471554,4e-7 L 8.5471554,4.1713026e-7 Z"
         transform="matrix(0.97525863,0,0,0.99498116,46.370197,41.231572)" />
      <path
         sodipodi:type="star"
         style="display:inline;fill:none;stroke:#666666;stroke-width:0.268593;stroke-linecap:round;stroke-linejoin:round;stroke-dasharray:none;stroke-dashoffset:25.9;stroke-opacity:1"
         id="path41588-1"
         inkscape:flatsided="true"
         sodipodi:sides="6"
         sodipodi:cx="0"
         sodipodi:cy="0"
         sodipodi:r1="8.5471554"
         sodipodi:r2="7.4020543"
         sodipodi:arg1="1.0471976"
         sodipodi:arg2="1.5707963"
         inkscape:rounded="0"
         inkscape:randomized="0"
         d="m 4.2735773,7.4020539 -8.5471554,-4e-7 L -8.5471554,-4.1713026e-7 -4.2735773,-7.4020539 l 8.5471554,4e-7 L 8.5471554,4.1713026e-7 Z"
         transform="matrix(0.97525863,0,0,0.99498116,58.873728,33.866669)" />
      <path
         sodipodi:type="star"
         style="display:inline;fill:none;stroke:#666666;stroke-width:0.268593;stroke-linecap:round;stroke-linejoin:round;stroke-dasharray:none;stroke-dashoffset:25.9;stroke-opacity:1"
         id="path41588-2"
         inkscape:flatsided="true"
         sodipodi:sides="6"
         sodipodi:cx="0"
         sodipodi:cy="0"
         sodipodi:r1="8.5471554"
         sodipodi:r2="7.4020543"
         sodipodi:arg1="1.0471976"
         sodipodi:arg2="1.5707963"
         inkscape:rounded="0"
         inkscape:randomized="0"
         d="m 4.2735773,7.4020539 -8.5471554,-4e-7 L -8.5471554,-4.1713026e-7 -4.2735773,-7.4020539 l 8.5471554,4e-7 L 8.5471554,4.1713026e-7 Z"
         transform="matrix(0.97525863,0,0,0.99498116,58.873727,48.596477)" />
      <path
         sodipodi:type="star"
         style="display:inline;fill:none;stroke:#666666;stroke-width:0.268593;stroke-linecap:round;stroke-linejoin:round;stroke-dasharray:none;stroke-dashoffset:25.9;stroke-opacity:1"
         id="path41588-70"
         inkscape:flatsided="true"
         sodipodi:sides="6"
         sodipodi:cx="0"
         sodipodi:cy="0"
         sodipodi:r1="8.5471554"
         sodipodi:r2="7.4020543"
         sodipodi:arg1="1.0471976"
         sodipodi:arg2="1.5707963"
         inkscape:rounded="0"
         inkscape:randomized="0"
         d="m 4.2735773,7.4020539 -8.5471554,-4e-7 L -8.5471554,-4.1713026e-7 -4.2735773,-7.4020539 l 8.5471554,4e-7 L 8.5471554,4.1713026e-7 Z"
         transform="matrix(0.97525863,0,0,0.99498116,46.370196,55.96138)" />
      <path
         sodipodi:type="star"
         style="display:inline;fill:none;stroke:#666666;stroke-width:0.268593;stroke-linecap:round;stroke-linejoin:round;stroke-dasharray:none;stroke-dashoffset:25.9;stroke-opacity:1"
         id="path41588-93"
         inkscape:flatsided="true"
         sodipodi:sides="6"
         sodipodi:cx="0"
         sodipodi:cy="0"
         sodipodi:r1="8.5471554"
         sodipodi:r2="7.4020543"
         sodipodi:arg1="1.0471976"
         sodipodi:arg2="1.5707963"
         inkscape:rounded="0"
         inkscape:randomized="0"
         d="m 4.2735773,7.4020539 -8.5471554,-4e-7 L -8.5471554,-4.1713026e-7 -4.2735773,-7.4020539 l 8.5471554,4e-7 L 8.5471554,4.1713026e-7 Z"
         transform="matrix(0.97525863,0,0,0.99498116,33.866665,63.326283)" />
      <path
         sodipodi:type="star"
         style="display:inline;fill:none;stroke:#666666;stroke-width:0.268593;stroke-linecap:round;stroke-linejoin:round;stroke-dasharray:none;stroke-dashoffset:25.9;stroke-opacity:1"
         id="path41588-60"
         inkscape:flatsided="true"
         sodipodi:sides="6"
         sodipodi:cx="0"
         sodipodi:cy="0"
         sodipodi:r1="8.5471554"
         sodipodi:r2="7.4020543"
         sodipodi:arg1="1.0471976"
         sodipodi:arg2="1.5707963"
         inkscape:rounded="0"
         inkscape:randomized="0"
         d="m 4.2735773,7.4020539 -8.5471554,-4e-7 L -8.5471554,-4.1713026e-7 -4.2735773,-7.4020539 l 8.5471554,4e-7 L 8.5471554,4.1713026e-7 Z"
         transform="matrix(0.97525863,0,0,0.99498116,8.8596058,33.866665)" />
      <path
         sodipodi:type="star"
         style="display:inline;fill:none;stroke:#666666;stroke-width:0.268593;stroke-linecap:round;stroke-linejoin:round;stroke-dasharray:none;stroke-dashoffset:25.9;stroke-opacity:1"
         id="path41588-626"
         inkscape:flatsided="true"
         sodipodi:sides="6"
         sodipodi:cx="0"
         sodipodi:cy="0"
         sodipodi:r1="8.5471554"
         sodipodi:r2="7.4020543"
         sodipodi:arg1="1.0471976"
         sodipodi:arg2="1.5707963"
         inkscape:rounded="0"
         inkscape:randomized="0"
         d="m 4.2735773,7.4020539 -8.5471554,-4e-7 L -8.5471554,-4.1713026e-7 -4.2735773,-7.4020539 l 8.5471554,4e-7 L 8.5471554,4.1713026e-7 Z"
         transform="matrix(0.97525863,0,0,0.99498116,21.363137,26.501762)" />
      <path
         sodipodi:type="star"
         style="display:inline;fill:none;stroke:#666666;stroke-width:0.268593;stroke-linecap:round;stroke-linejoin:round;stroke-dasharray:none;stroke-dashoffset:25.9;stroke-opacity:1"
         id="path41588-18"
         inkscape:flatsided="true"
         sodipodi:sides="6"
         sodipodi:cx="0"
         sodipodi:cy="0"
         sodipodi:r1="8.5471554"
         sodipodi:r2="7.4020543"
         sodipodi:arg1="1.0471976"
         sodipodi:arg2="1.5707963"
         inkscape:rounded="0"
         inkscape:randomized="0"
         d="m 4.2735773,7.4020539 -8.5471554,-4e-7 L -8.5471554,-4.1713026e-7 -4.2735773,-7.4020539 l 8.5471554,4e-7 L 8.5471554,4.1713026e-7 Z"
         transform="matrix(0.97525863,0,0,0.99498116,33.866668,19.136859)" />
      <path
         sodipodi:type="star"
         style="display:inline;fill:none;stroke:#666666;stroke-width:0.268593;stroke-linecap:round;stroke-linejoin:round;stroke-dasharray:none;stroke-dashoffset:25.9;stroke-opacity:1"
         id="path41588-79"
         inkscape:flatsided="true"
         sodipodi:sides="6"
         sodipodi:cx="0"
         sodipodi:cy="0"
         sodipodi:r1="8.5471554"
         sodipodi:r2="7.4020543"
         sodipodi:arg1="1.0471976"
         sodipodi:arg2="1.5707963"
         inkscape:rounded="0"
         inkscape:randomized="0"
         d="m 4.2735773,7.4020539 -8.5471554,-4e-7 L -8.5471554,-4.1713026e-7 -4.2735773,-7.4020539 l 8.5471554,4e-7 L 8.5471554,4.1713026e-7 Z"
         transform="matrix(0.97525863,0,0,0.99498116,46.370199,11.771956)" />
      <path
         sodipodi:type="star"
         style="display:inline;fill:none;stroke:#666666;stroke-width:0.268593;stroke-linecap:round;stroke-linejoin:round;stroke-dasharray:none;stroke-dashoffset:25.9;stroke-opacity:1"
         id="path41588-20"
         inkscape:flatsided="true"
         sodipodi:sides="6"
         sodipodi:cx="0"
         sodipodi:cy="0"
         sodipodi:r1="8.5471554"
         sodipodi:r2="7.4020543"
         sodipodi:arg1="1.0471976"
         sodipodi:arg2="1.5707963"
         inkscape:rounded="0"
         inkscape:randomized="0"
         d="m 4.2735773,7.4020539 -8.5471554,-4e-7 L -8.5471554,-4.1713026e-7 -4.2735773,-7.4020539 l 8.5471554,4e-7 L 8.5471554,4.1713026e-7 Z"
         transform="matrix(0.97525863,0,0,0.99498116,33.866669,4.4070511)" />
      <path
         sodipodi:type="star"
         style="display:inline;fill:none;stroke:#666666;stroke-width:0.268593;stroke-linecap:round;stroke-linejoin:round;stroke-dasharray:none;stroke-dashoffset:25.9;stroke-opacity:1"
         id="path41588-23"
         inkscape:flatsided="true"
         sodipodi:sides="6"
         sodipodi:cx="0"
         sodipodi:cy="0"
         sodipodi:r1="8.5471554"
         sodipodi:r2="7.4020543"
         sodipodi:arg1="1.0471976"
         sodipodi:arg2="1.5707963"
         inkscape:rounded="0"
         inkscape:randomized="0"
         d="m 4.2735773,7.4020539 -8.5471554,-4e-7 L -8.5471554,-4.1713026e-7 -4.2735773,-7.4020539 l 8.5471554,4e-7 L 8.5471554,4.1713026e-7 Z"
         transform="matrix(0.97525863,0,0,0.99498116,21.363138,11.771954)" />
      <path
         sodipodi:type="star"
         style="display:inline;fill:none;stroke:#666666;stroke-width:0.268593;stroke-linecap:round;stroke-linejoin:round;stroke-dasharray:none;stroke-dashoffset:25.9;stroke-opacity:1"
         id="path41588-75"
         inkscape:flatsided="true"
         sodipodi:sides="6"
         sodipodi:cx="0"
         sodipodi:cy="0"
         sodipodi:r1="8.5471554"
         sodipodi:r2="7.4020543"
         sodipodi:arg1="1.0471976"
         sodipodi:arg2="1.5707963"
         inkscape:rounded="0"
         inkscape:randomized="0"
         d="m 4.2735773,7.4020539 -8.5471554,-4e-7 L -8.5471554,-4.1713026e-7 -4.2735773,-7.4020539 l 8.5471554,4e-7 L 8.5471554,4.1713026e-7 Z"
         transform="matrix(0.97525863,0,0,0.99498116,8.8596065,19.136857)" />
      <path
         sodipodi:type="star"
         style="display:inline;fill:none;stroke:#7a7a7a;stroke-width:0.267567;stroke-linecap:round;stroke-linejoin:round;stroke-dasharray:none;stroke-dashoffset:25.9;stroke-opacity:1"
         id="path234-9"
         inkscape:flatsided="true"
         sodipodi:sides="6"
         sodipodi:cx="0"
         sodipodi:cy="0"
         sodipodi:r1="8.5471554"
         sodipodi:r2="7.4020543"
         sodipodi:arg1="1.0471976"
         sodipodi:arg2="1.5707963"
         inkscape:rounded="0"
         inkscape:randomized="0"
         d="m 4.2735773,7.4020539 -8.5471554,-4e-7 L -8.5471554,-4.1713026e-7 -4.2735773,-7.4020539 l 8.5471554,4e-7 L 8.5471554,4.1713026e-7 Z"
         transform="matrix(3.9012693,0,0,4.010266,33.866667,33.866667)"
         inkscape:label="town-node" />
    </g>
  </g>
</svg>
